<svg width="64" height="64" viewBox="0 0 64 64" fill="none" xmlns="http://www.w3.org/2000/svg">
<path d="M6.5285 8.7814L5.8214 8.0743L5.82138 8.07432L6.5285 8.7814ZM14.9611 9.4855L14.5501 10.3971L14.5502 10.3972L14.9611 9.4855ZM37.5344 26.5255L38.2415 25.8184L38.2415 25.8184L37.5344 26.5255ZM54.6398 49.2482L53.726 49.6542L53.726 49.6544L54.6398 49.2482ZM55.9103 52.9005L56.8852 52.6778L56.8851 52.6775L55.9103 52.9005ZM56.1613 54.6291L55.1623 54.6738L55.2639 56.9407L56.8684 55.3362L56.1613 54.6291ZM56.1623 54.6281L57.1613 54.5829L57.0589 52.3173L55.4552 53.921L56.1623 54.6281ZM55.2795 57.5324L55.9866 58.2395L55.9866 58.2395L55.2795 57.5324ZM46.0041 56.4347L46.4405 55.535L45.9647 55.3042L45.506 55.5676L46.0041 56.4347ZM32.0002 60.1603V61.1603H32.0002L32.0002 60.1603ZM14.1213 53.757L13.4616 53.0054L12.5772 53.7816L13.4859 54.5292L14.1213 53.757ZM21.1057 47.6271L21.3178 46.6499L20.825 46.5429L20.446 46.8755L21.1057 47.6271ZM22.426 47.7697V48.7697H22.426L22.426 47.7697ZM28.6213 41.5744H29.6213V41.5744L28.6213 41.5744ZM22.426 35.3791L22.426 34.3791H22.426V35.3791ZM16.2307 41.5744L15.2307 41.5744V41.5744H16.2307ZM16.423 43.1173L17.1747 43.7769L17.5227 43.3803L17.3917 42.8691L16.423 43.1173ZM10.3635 50.0226L9.59544 50.663L10.3441 51.5608L11.1151 50.6822L10.3635 50.0226ZM3.84003 32.0002H2.84003V32.0002L3.84003 32.0002ZM7.58124 17.964L8.44775 18.4632L8.71122 18.0058L8.48225 17.5302L7.58124 17.964ZM32.0002 3.84L32.0002 2.84H32.0002V3.84ZM46.5734 7.90054L46.0551 8.75576L46.7817 9.19605L47.3336 8.55024L46.5734 7.90054ZM51.7121 5.52945L51.7121 4.52945H51.7121V5.52945ZM58.4709 12.2882L59.4709 12.2883V12.2882H58.4709ZM56.0998 17.4259L55.45 16.6658L54.8043 17.2178L55.2446 17.9442L56.0998 17.4259ZM60.1603 32.0002L61.1603 32.0002V32.0002H60.1603ZM56.9514 45.0597L56.0736 45.5388L56.9687 47.179L57.8369 45.5243L56.9514 45.0597ZM40.5207 23.5392L41.2278 22.8321L41.2278 22.8321L40.5207 23.5392ZM18.9123 7.0607L18.4468 6.17564L16.7922 7.04583L18.4344 7.93914L18.9123 7.0607ZM6.5285 8.7814L7.23561 9.48851C7.6581 9.06601 8.41848 8.79862 9.70708 8.91825C10.9852 9.0369 12.6188 9.52642 14.5501 10.3971L14.9611 9.4855L15.3721 8.57387C13.3403 7.65785 11.4787 7.07412 9.89195 6.92681C8.31564 6.78047 6.8413 7.05439 5.8214 8.0743L6.5285 8.7814ZM14.9611 9.4855L14.5502 10.3972C20.4956 13.0772 28.7114 19.1169 36.8273 27.2327L37.5344 26.5255L38.2415 25.8184C30.0376 17.6147 21.6245 11.3923 15.3721 8.57385L14.9611 9.4855ZM37.5344 26.5255L36.8273 27.2327C45.0099 35.4153 51.0802 43.699 53.726 49.6542L54.6398 49.2482L55.5537 48.8422C52.7685 42.5731 46.5117 34.0886 38.2415 25.8184L37.5344 26.5255ZM54.6398 49.2482L53.726 49.6544C54.3006 50.9471 54.7037 52.1103 54.9355 53.1236L55.9103 52.9005L56.8851 52.6775C56.6171 51.5059 56.165 50.2176 55.5536 48.842L54.6398 49.2482ZM55.9103 52.9005L54.9355 53.1233C55.0672 53.6997 55.1418 54.2164 55.1623 54.6738L56.1613 54.6291L57.1603 54.5843C57.1333 53.9815 57.0373 53.3433 56.8852 52.6778L55.9103 52.9005ZM56.1613 54.6291L56.8684 55.3362L56.8694 55.3352L56.1623 54.6281L55.4552 53.921L55.4542 53.922L56.1613 54.6291ZM56.1623 54.6281L55.1633 54.6732C55.2132 55.776 54.9577 56.44 54.5724 56.8253L55.2795 57.5324L55.9866 58.2395C56.9181 57.3079 57.2251 55.9946 57.1613 54.5829L56.1623 54.6281ZM55.2795 57.5324L54.5724 56.8253C54.1201 57.2775 53.2781 57.5512 51.8309 57.3661C50.4032 57.1835 48.5807 56.5731 46.4405 55.535L46.0041 56.4347L45.5677 57.3345C47.803 58.4187 49.8467 59.1286 51.5771 59.3499C53.288 59.5688 54.8959 59.3301 55.9866 58.2395L55.2795 57.5324ZM46.0041 56.4347L45.506 55.5676C41.5285 57.8521 36.9187 59.1603 32.0002 59.1603L32.0002 60.1603L32.0002 61.1603C37.2779 61.1603 42.23 59.7556 46.5021 57.3019L46.0041 56.4347ZM32.0002 60.1603V59.1603C25.4518 59.1603 19.4471 56.8438 14.7566 52.9848L14.1213 53.757L13.4859 54.5292C18.5212 58.6718 24.9713 61.1603 32.0002 61.1603V60.1603ZM14.1213 53.757L14.7809 54.5086L21.7653 48.3787L21.1057 47.6271L20.446 46.8755L13.4616 53.0054L14.1213 53.757ZM21.1057 47.6271L20.8935 48.6044C21.3859 48.7112 21.8987 48.7697 22.426 48.7697V47.7697V46.7697C22.047 46.7697 21.6763 46.7277 21.3178 46.6499L21.1057 47.6271ZM22.426 47.7697L22.426 48.7697C26.3996 48.7695 29.6213 45.5481 29.6213 41.5744H28.6213H27.6213C27.6213 44.4434 25.2951 46.7695 22.4259 46.7697L22.426 47.7697ZM28.6213 41.5744L29.6213 41.5744C29.6212 37.6007 26.3995 34.3793 22.426 34.3791L22.426 35.3791L22.4259 36.3791C25.295 36.3792 27.6213 38.7053 27.6213 41.5744L28.6213 41.5744ZM22.426 35.3791V34.3791C18.4522 34.3791 15.2307 37.6006 15.2307 41.5744L16.2307 41.5744L17.2307 41.5744C17.2307 38.7052 19.5568 36.3791 22.426 36.3791V35.3791ZM16.2307 41.5744H15.2307C15.2307 42.1898 15.3069 42.7904 15.4543 43.3656L16.423 43.1173L17.3917 42.8691C17.2863 42.4579 17.2307 42.0241 17.2307 41.5744H16.2307ZM16.423 43.1173L15.6714 42.4578L9.61183 49.363L10.3635 50.0226L11.1151 50.6822L17.1747 43.7769L16.423 43.1173ZM10.3635 50.0226L11.1315 49.3822C7.20338 44.6715 4.84006 38.6133 4.84003 32.0001L3.84003 32.0002L2.84003 32.0002C2.84007 39.0988 5.37889 45.6064 9.59544 50.663L10.3635 50.0226ZM3.84003 32.0002H4.84003C4.84003 27.069 6.15274 22.4473 8.44775 18.4632L7.58124 17.964L6.71472 17.4649C4.24939 21.7446 2.84003 26.7095 2.84003 32.0002H3.84003ZM7.58124 17.964L8.48225 17.5302C7.46286 15.4129 6.86618 13.6113 6.69094 12.2001C6.51341 10.7705 6.78658 9.93756 7.23563 9.48849L6.5285 8.7814L5.82138 8.07432C4.73845 9.15731 4.49556 10.7505 4.70619 12.4466C4.91911 14.1612 5.61478 16.1848 6.68023 18.3978L7.58124 17.964ZM32.0002 3.84L32.0002 4.84C37.1465 4.84002 41.9554 6.27122 46.0551 8.75576L46.5734 7.90054L47.0917 7.04533C42.6884 4.37685 37.5224 2.84003 32.0002 2.84L32.0002 3.84ZM46.5734 7.90054L47.3336 8.55024C48.3917 7.31215 49.9599 6.52945 51.7121 6.52945V5.52945V4.52945C49.3493 4.52945 47.2343 5.5881 45.8132 7.25085L46.5734 7.90054ZM51.7121 5.52945L51.7121 6.52945C54.8924 6.52948 57.4709 9.10799 57.4709 12.2882H58.4709H59.4709C59.4709 8.0034 55.9969 4.52949 51.7121 4.52945L51.7121 5.52945ZM58.4709 12.2882L57.4709 12.2882C57.4708 14.0399 56.688 15.6076 55.45 16.6658L56.0998 17.4259L56.7496 18.1861C58.4117 16.7652 59.4708 14.6509 59.4709 12.2883L58.4709 12.2882ZM56.0998 17.4259L55.2446 17.9442C57.7292 22.0441 59.1603 26.8536 59.1603 32.0002H60.1603H61.1603C61.1603 26.4777 59.6237 21.3111 56.955 16.9076L56.0998 17.4259ZM60.1603 32.0002L59.1603 32.0001C59.1603 36.5481 58.0407 40.8311 56.0658 44.5951L56.9514 45.0597L57.8369 45.5243C59.9581 41.4813 61.1603 36.8802 61.1603 32.0002L60.1603 32.0002ZM56.9514 45.0597L57.8291 44.5807C53.9076 37.3951 48.2711 29.8754 41.2278 22.8321L40.5207 23.5392L39.8136 24.2463C46.7361 31.1688 52.2526 38.5374 56.0736 45.5388L56.9514 45.0597ZM40.5207 23.5392L41.2278 22.8321C34.1552 15.7596 26.6029 10.1058 19.3901 6.18225L18.9123 7.0607L18.4344 7.93914C25.4617 11.7618 32.8623 17.295 39.8136 24.2463L40.5207 23.5392ZM18.9123 7.0607L19.3778 7.94576C23.148 5.9629 27.4414 4.84 32.0002 4.84V3.84V2.84C27.1092 2.84 22.4971 4.04549 18.4468 6.17564L18.9123 7.0607Z" fill="#D2D2D2" fill-opacity="0.5"/>
</svg>
