<svg width="100" height="100" viewBox="0 0 100 100" fill="none" xmlns="http://www.w3.org/2000/svg">
<path d="M17.1543 15.7607C25.0159 15.4399 41.6536 26.0149 57.8623 42.2236C73.5478 57.9091 83.9561 73.9967 84.3213 82.1436L84.3223 82.1426C84.4028 83.9282 84.0026 85.3324 83.0674 86.2676C80.8757 88.4591 76.1075 87.7234 69.8926 84.709C64.0333 88.0743 57.2417 90 50 90C40.3572 90 31.5119 86.587 24.6045 80.9043L34.5244 72.1973C35.1289 72.3285 35.7565 72.4004 36.4004 72.4004C41.2603 72.4002 45.2002 68.4596 45.2002 63.5996C45.2 58.7398 41.2602 54.8 36.4004 54.7998C31.5404 54.7998 27.5998 58.7397 27.5996 63.5996C27.5996 64.356 27.6955 65.0906 27.875 65.791L19.2656 75.5996C13.4813 68.6627 10 59.7383 10 50C10 42.7405 11.9337 35.9326 15.3145 30.0635C12.3527 23.9121 11.6422 19.1949 13.8184 17.0186C14.611 16.2259 15.7409 15.8172 17.1543 15.7598V15.7607ZM50 10C57.5768 10 64.6612 12.1071 70.7002 15.7666C72.461 13.7066 75.0776 12.4004 78 12.4004C83.3019 12.4004 87.5996 16.6981 87.5996 22C87.5996 24.9225 86.2925 27.5381 84.2324 29.2988C87.8923 35.338 90 42.4227 90 50C90 56.6964 88.3515 63.0066 85.4424 68.5518C79.9434 58.4756 72.0235 47.9005 62.1045 37.9814C52.1445 28.0215 41.5237 20.0767 31.4102 14.5752C36.9643 11.6542 43.2887 10 50 10Z" fill="url(#paint0_radial_36_199)"/>
<defs>
<radialGradient id="paint0_radial_36_199" cx="0" cy="0" r="1" gradientUnits="userSpaceOnUse" gradientTransform="translate(50 50) rotate(90) scale(40)">
<stop stop-color="#70BBFF"/>
<stop offset="1" stop-color="#0083FA"/>
</radialGradient>
</defs>
</svg>
