<svg width="40" height="40" viewBox="0 0 40 40" fill="none" xmlns="http://www.w3.org/2000/svg">
<g clip-path="url(#clip0_113_41)">
<path d="M0 0H40V40H0V0Z" fill="#AED4FF"/>
<g clip-path="url(#clip1_113_41)">
<path d="M20 16.5C20.4661 16.4895 20.9296 16.5721 21.3633 16.7432C21.797 16.9143 22.1921 17.1702 22.5256 17.4961C22.859 17.822 23.1239 18.2112 23.3048 18.6409C23.4858 19.0705 23.579 19.532 23.5791 19.9982C23.5792 20.4644 23.4862 20.926 23.3055 21.3557C23.1248 21.7855 22.86 22.1748 22.5268 22.5009C22.1936 22.8269 21.7985 23.0831 21.3649 23.2544C20.9313 23.4256 20.4678 23.5086 20.0018 23.4982C19.0873 23.478 18.217 23.1006 17.5774 22.4468C16.9377 21.793 16.5794 20.9147 16.5791 20C16.5789 19.0853 16.9368 18.2068 17.5761 17.5527C18.2155 16.8985 19.0855 16.5207 20 16.5ZM20 21.75C19.5359 21.75 19.0908 21.5656 18.7626 21.2374C18.4344 20.9092 18.25 20.4641 18.25 20C18.25 19.5359 18.4344 19.0908 18.7626 18.7626C19.0908 18.4344 19.5359 18.25 20 18.25C20.4641 18.25 20.9092 18.4344 21.2374 18.7626C21.5656 19.0908 21.75 19.5359 21.75 20C21.75 20.4641 21.5656 20.9092 21.2374 21.2374C20.9092 21.5656 20.4641 21.75 20 21.75ZM20 9.5C18.6211 9.5 17.2557 9.77159 15.9818 10.2993C14.7079 10.8269 13.5504 11.6004 12.5754 12.5754C11.6004 13.5504 10.8269 14.7079 10.2993 15.9818C9.77159 17.2557 9.5 18.6211 9.5 20C9.5 21.3789 9.77159 22.7443 10.2993 24.0182C10.8269 25.2921 11.6004 26.4496 12.5754 27.4246C13.5504 28.3996 14.7079 29.1731 15.9818 29.7007C17.2557 30.2284 18.6211 30.5 20 30.5C22.7848 30.5 25.4555 29.3938 27.4246 27.4246C29.3938 25.4555 30.5 22.7848 30.5 20C30.5 17.2152 29.3938 14.5445 27.4246 12.5754C25.4555 10.6062 22.7848 9.5 20 9.5Z" fill="#3F92FF"/>
</g>
</g>
<defs>
<clipPath id="clip0_113_41">
<rect width="40" height="40" fill="white"/>
</clipPath>
<clipPath id="clip1_113_41">
<rect width="28" height="28" fill="white" transform="translate(6 6)"/>
</clipPath>
</defs>
</svg>
