<svg width="40" height="40" viewBox="0 0 40 40" fill="none" xmlns="http://www.w3.org/2000/svg">
<g clip-path="url(#clip0_89_27)">
<path d="M0 0H40V40H0V0Z" fill="#D6D6D6"/>
<g clip-path="url(#clip1_89_27)">
<path d="M28.765 15.982L28.787 16.172L28.794 16.366V23.634C28.7939 24.0426 28.6937 24.4449 28.5021 24.8058C28.3105 25.1666 28.0334 25.4751 27.695 25.704L27.545 25.799L21.25 29.433L21.126 29.5L21 29.56V20.57L28.765 15.982ZM11.235 15.982L19 20.571V29.559C18.9147 29.5209 18.8313 29.4789 18.75 29.433L12.456 25.799C12.076 25.5796 11.7604 25.264 11.5409 24.884C11.3215 24.5039 11.206 24.0728 11.206 23.634V16.366C11.206 16.236 11.216 16.108 11.236 15.982H11.235ZM21.25 10.567L27.544 14.201C27.5947 14.231 27.644 14.2617 27.692 14.293L20 18.84L12.308 14.292C12.3564 14.2599 12.4058 14.2292 12.456 14.2L18.75 10.566C19.13 10.3466 19.5612 10.2311 20 10.2311C20.4388 10.2311 20.8699 10.3476 21.25 10.567Z" fill="#9F9F9F"/>
</g>
</g>
<defs>
<clipPath id="clip0_89_27">
<rect width="40" height="40" fill="white"/>
</clipPath>
<clipPath id="clip1_89_27">
<rect width="24" height="24" fill="white" transform="translate(8 8)"/>
</clipPath>
</defs>
</svg>
