<svg width="40" height="40" viewBox="0 0 40 40" fill="none" xmlns="http://www.w3.org/2000/svg">
<g clip-path="url(#clip0_89_34)">
<path d="M0 0H40V40H0V0Z" fill="#D6D6D6"/>
<g clip-path="url(#clip1_89_34)">
<path d="M28.083 18.5L29.285 19.221C29.3592 19.2654 29.4205 19.3282 29.4632 19.4034C29.5058 19.4786 29.5282 19.5636 29.5282 19.65C29.5282 19.7364 29.5058 19.8214 29.4632 19.8965C29.4205 19.9717 29.3592 20.0346 29.285 20.079L20 25.649L10.715 20.079C10.6409 20.0346 10.5795 19.9717 10.5369 19.8965C10.4942 19.8214 10.4718 19.7364 10.4718 19.65C10.4718 19.5636 10.4942 19.4786 10.5369 19.4034C10.5795 19.3282 10.6409 19.2654 10.715 19.221L11.917 18.5L20 23.35L28.083 18.5ZM28.083 23.2L29.285 23.921C29.3592 23.9654 29.4205 24.0282 29.4632 24.1034C29.5058 24.1786 29.5282 24.2636 29.5282 24.35C29.5282 24.4364 29.5058 24.5214 29.4632 24.5965C29.4205 24.6717 29.3592 24.7346 29.285 24.779L20.515 30.041C20.3595 30.1344 20.1815 30.1838 20 30.1838C19.8186 30.1838 19.6405 30.1344 19.485 30.041L10.715 24.779C10.6409 24.7346 10.5795 24.6717 10.5369 24.5965C10.4942 24.5214 10.4718 24.4364 10.4718 24.35C10.4718 24.2636 10.4942 24.1786 10.5369 24.1034C10.5795 24.0282 10.6409 23.9654 10.715 23.921L11.917 23.2L20 28.05L28.083 23.2ZM20.514 9.30899L29.285 14.571C29.3592 14.6154 29.4205 14.6782 29.4632 14.7534C29.5058 14.8286 29.5282 14.9136 29.5282 15C29.5282 15.0864 29.5058 15.1714 29.4632 15.2465C29.4205 15.3217 29.3592 15.3846 29.285 15.429L20 20.999L10.715 15.43C10.6409 15.3856 10.5795 15.3227 10.5369 15.2475C10.4942 15.1724 10.4718 15.0874 10.4718 15.001C10.4718 14.9146 10.4942 14.8296 10.5369 14.7544C10.5795 14.6792 10.6409 14.6164 10.715 14.572L19.485 9.30999C19.6405 9.21654 19.8186 9.16718 20 9.16718C20.1815 9.16718 20.3595 9.21654 20.515 9.30999" fill="#9F9F9F"/>
</g>
</g>
<defs>
<clipPath id="clip0_89_34">
<rect width="40" height="40" fill="white"/>
</clipPath>
<clipPath id="clip1_89_34">
<rect width="24" height="24" fill="white" transform="translate(8 8)"/>
</clipPath>
</defs>
</svg>
