<svg width="40" height="40" viewBox="0 0 40 40" fill="none" xmlns="http://www.w3.org/2000/svg">
<g clip-path="url(#clip0_113_51)">
<path d="M0 0H40V40H0V0Z" fill="#AED4FF"/>
<g clip-path="url(#clip1_113_51)">
<path d="M13.0608 12.9819C13.2798 12.5768 13.6043 12.2385 13.9999 12.0028C14.3955 11.767 14.8474 11.6427 15.3079 11.6429H24.6967C25.1572 11.6427 25.6092 11.767 26.0048 12.0028C26.4003 12.2385 26.7248 12.5768 26.9439 12.9819L30.1595 18.9321C29.6643 18.7162 29.1296 18.6055 28.5893 18.6071H11.4107C10.8545 18.6071 10.3261 18.7223 9.84608 18.9294L13.0608 12.9819ZM28.5893 28.3571C29.2665 28.3571 29.9161 28.0881 30.3949 27.6092C30.8738 27.1303 31.1429 26.4808 31.1429 25.8036V22.5536C31.1429 21.8763 30.8738 21.2268 30.3949 20.7479C29.9161 20.269 29.2665 20 28.5893 20H11.4107C10.7335 20 10.084 20.269 9.60507 20.7479C9.12618 21.2268 8.85715 21.8763 8.85715 22.5536V25.8036C8.85715 26.4808 9.12618 27.1303 9.60507 27.6092C10.084 28.0881 10.7335 28.3571 11.4107 28.3571H28.5893ZM11.8036 24.1786C11.8036 23.8726 11.9243 23.5791 12.1396 23.3617C12.3549 23.1444 12.6472 23.0208 12.9531 23.0179H12.9754C13.2045 23.0201 13.4278 23.09 13.6172 23.2189C13.8066 23.3477 13.9537 23.5298 14.0398 23.742C14.126 23.9543 14.1474 24.1873 14.1013 24.4118C14.0553 24.6362 13.9439 24.842 13.7811 25.0032C13.6183 25.1644 13.4115 25.2738 13.1867 25.3177C12.9618 25.3616 12.729 25.338 12.5176 25.2498C12.3061 25.1617 12.1255 25.0129 11.9984 24.8223C11.8714 24.6316 11.8036 24.4077 11.8036 24.1786Z" fill="#3F92FF"/>
</g>
</g>
<defs>
<clipPath id="clip0_113_51">
<rect width="40" height="40" fill="white"/>
</clipPath>
<clipPath id="clip1_113_51">
<rect width="26" height="26" fill="white" transform="translate(7 7)"/>
</clipPath>
</defs>
</svg>
